<?xml version="1.0" encoding="utf-8"?><svg id="clock" image-rendering="auto" baseProfile="basic" version="1.1" x="0px" y="0px" width="550" height="400" xmlns="http://www.w3.org/2000/svg" xmlns:xlink="http://www.w3.org/1999/xlink"><g id="Scene-1" overflow="visible"><path fill="#06C" stroke="none" d="M320.05 154.9Q301.4 136.25 275 136.25 248.6 136.25 229.9 154.9 211.25 173.6 211.25 200 211.25 226.4 229.9 245.05 248.6 263.75 275 263.75 301.4 263.75 320.05 245.05 338.75 226.4 338.75 200 338.75 173.6 320.05 154.9Z"/><g mask="url(#mask_)"><g id="Tween-5" transform="translate(275 175.45)"><animateTransform attributeName="transform" additive="replace" type="translate" repeatCount="indefinite" dur="5.333s" keyTimes="0;1" values="275.1,198.45;275.1,198.45"/><animateTransform attributeName="transform" additive="sum" type="rotate" repeatCount="indefinite" dur="5.333s" keyTimes="0;.994;1" values="0,0,0;4320,0,0;4320,0,0"/><animateTransform attributeName="transform" additive="sum" type="translate" repeatCount="indefinite" dur="5.333s" keyTimes="0;1" values="-.1,-23;-.1,-23"/><path fill="#FFC" stroke="none" d="M1 26.5L1 -26.5 -1 -26.5 -1 26.5 1 26.5Z"/></g></g><g mask="url(#mask_)"><g id="Tween-4" transform="translate(260.75 198.45)"><animateTransform attributeName="transform" additive="replace" type="translate" repeatCount="indefinite" dur="5.333s" keyTimes="0;1" values="275.1,198.45;275.1,198.45"/><animateTransform attributeName="transform" additive="sum" type="rotate" repeatCount="indefinite" dur="5.333s" keyTimes="0;.994;1" values="0,0,0;360,0,0;360,0,0"/><animateTransform attributeName="transform" additive="sum" type="translate" repeatCount="indefinite" dur="5.333s" keyTimes="0;1" values="-14.35,0;-14.35,0"/><path fill="#FFC" stroke="none" d="M18.25 1L18.25 -1 -18.25 -1 -18.25 1 18.25 1Z"/></g></g><mask id="mask_"><g><g><g id="Layer1_0_FILL"><path fill="#FFF" stroke="none" d="M275 172.25Q263.5 172.25 255.35 180.4 247.25 188.5 247.25 200 247.25 211.5 255.35 219.6 263.5 227.75 275 227.75 286.5 227.75 294.6 219.6 302.75 211.5 302.75 200 302.75 188.5 294.6 180.4 286.5 172.25 275 172.25Z" fill-opacity="1"/></g></g></g></mask><g display="none"><g id="Tween-3" transform="translate(103.05 119.05)"><animateTransform attributeName="transform" additive="replace" type="translate" repeatCount="indefinite" dur="5.333s" keyTimes="0;.49999;.5;.50599;.506;.51299;.513;.51899;.519;.52499;.525;.53099;.531;.53799;.538;.54399;.544;.54999;.55;.55599;.556;.56299;.563;.56899;.569;.57499;.575;.58099;.581;.58799;.588;.59399;.594;.59999;.6;.60599;.606;.61299;.613;.61899;.619;.62499;.625;.63099;.631;.63799;.638;.64399;.644;.64999;.65;.65599;.656;.66299;.663;.66899;.669;.67499;.675;.68099;.681;.68799;.688;.69399;.694;.69999;.7;.70599;.706;.71299;.713;.71899;.719;.72499;.725;.73099;.731;.73799;.738;.74399;.744;.74999;.75;.75599;.756;.76299;.763;.76899;.769;.77499;.775;.78099;.781;.78799;.788;.79399;.794;.79999;.8;.80599;.806;.81299;.813;.81899;.819;.82499;.825;.83099;.831;.83799;.838;.84399;.844;.84999;.85;.85599;.856;.86299;.863;.86899;.869;.87499;.875;.88099;.881;.88799;.888;.89399;.894;.89999;.9;.90599;.906;.91299;.913;.91899;.919;.92499;.925;.93099;.931;.93799;.938;.94399;.944;.94999;.95;.95599;.956;.96299;.963;.96899;.969;.97499;.975;.98099;.981;.98799;.988;1" values="103.05,119.05;103.05,119.05;112.7,104.7;112.7,104.7;123.75,92.2;123.75,92.2;136.1,81.65;136.1,81.65;149.45,73.4;149.45,73.4;163.45,67.75;163.45,67.75;177.65,64.85;177.65,64.85;191.45,64.5;191.45,64.5;204.55,66.25;204.55,66.25;216.7,69.65;216.7,69.65;227.7,74.1;227.7,74.1;237.65,79.2;237.65,79.2;246.6,84.65;246.6,84.65;254.7,90.15;254.7,90.15;262.25,95.25;262.25,95.25;269.35,99.95;269.35,99.95;276.15,104.35;276.15,104.35;282.55,108.4;282.55,108.4;288.7,112.2;288.7,112.2;294.55,115.7;294.55,115.7;300.15,118.95;300.15,118.95;305.5,121.95;305.5,121.95;310.65,124.7;310.65,124.7;315.5,127.2;315.5,127.2;320.1,129.4;320.1,129.4;324.5,131.4;324.5,131.4;328.8,133.15;328.8,133.15;332.9,134.75;332.9,134.75;336.85,136.1;336.85,136.1;340.65,137.2;340.65,137.2;344.35,138.15;344.35,138.15;347.9,138.85;347.9,138.85;351.35,139.3;351.35,139.3;354.6,139.5;354.6,139.5;357.7,139.5;357.7,139.5;360.65,139.25;360.65,139.25;363.4,138.8;363.4,138.8;366.05,138.15;366.05,138.15;368.5,137.35;368.5,137.35;370.75,136.4;370.75,136.4;372.85,135.35;372.85,135.35;374.75,134.2;374.75,134.2;376.45,132.95;376.45,132.95;378.05,131.65;378.05,131.65;379.5,130.35;379.5,130.35;380.85,129;380.85,129;382.05,127.7;382.05,127.7;383.15,126.4;383.15,126.4;384.2,125.15;384.2,125.15;385.1,123.95;385.1,123.95;385.95,122.8;385.95,122.8;386.7,121.7;386.7,121.7;387.45,120.6;387.45,120.6;388.1,119.6;388.1,119.6;388.7,118.6;388.7,118.6;389.25,117.7;389.25,117.7;389.8,116.8;389.8,116.8;390.25,116;390.25,116;390.7,115.2;390.7,115.2;391.15,114.45;391.15,114.45;391.5,113.75;391.5,113.75;391.85,113.1;391.85,113.1;392.2,112.5;392.2,112.5;392.45,111.9;392.45,111.9;392.75,111.35;392.75,111.35;393,110.9;393,110.9;393.2,110.4;393.2,110.4;393.45,110;393.45,110;393.6,109.6;393.6,109.6;393.8,109.3;393.8,109.3;393.95,108.95;393.95,108.95;394.05,108.7;394.05,108.7;394.2,108.45;394.2,108.45;394.3,108.25;394.3,108.25;394.35,108.05;394.35,108.05;394.45,107.9;394.45,107.9;394.5,107.75;394.5,107.75;394.55,107.65;394.55,107.65;394.6,107.6;394.6,107.6;394.6,107.55;394.6,107.55" calcMode="discrete"/><path fill="#FFC" stroke="none" d="M15.9 -12.95Q9.3 -18.3 0 -18.3 -9.3 -18.3 -15.9 -12.95 -22.5 -7.6 -22.5 0 -22.5 7.6 -15.9 12.95 -9.3 18.3 0 18.3 9.3 18.3 15.9 12.95 22.5 7.6 22.5 0 22.5 -7.6 15.9 -12.95Z"/><path id="Layer3_0_1_STROKES" stroke="#000" stroke-width="1" stroke-linejoin="round" stroke-linecap="round" fill="none" d="M22.5 0Q22.5 7.6 15.9 12.95 9.3 18.3 0 18.3 -9.3 18.3 -15.9 12.95 -22.5 7.6 -22.5 0 -22.5 -7.6 -15.9 -12.95 -9.3 -18.3 0 -18.3 9.3 -18.3 15.9 -12.95 22.5 -7.6 22.5 0Z"/></g><animate attributeName="display" repeatCount="indefinite" dur="5.333s" keyTimes="0;.494;1" values="none;inline;inline"/></g></g></svg>